# AST/ASF file generated using VICON BodyLanguage
# -----------------------------------------------
:version 1.10
:name VICON
:units
  mass 1.0
  length 0.45
  angle deg
:documentation
   .ast/.asf automatically generated from VICON data using
   VICON BodyBuilder and BodyLanguage model FoxedUp or BRILLIANT.MOD
:root
   order TX TY TZ RX RY RZ
   axis XYZ
   position 0 0 0  
   orientation 0 0 0 
:bonedata
  begin
     id 1 
     name lhipjoint
     direction 0.589753 -0.68606 0.426044 
     length 2.54082 
     axis 0 0 0  XYZ
  end
  begin
     id 2 
     name lfemur
     direction 0.34202 -0.939693 0  
     length 7.04539  
     axis 0 0 20  XYZ
    dof rx ry rz
    limits (-160.0 20.0)
           (-70.0 70.0)
           (-60.0 70.0)
  end
  begin
     id 3 
     name ltibia
     direction 0.34202 -0.939693 0   
     length 7.83772   
     axis 0 0 20   XYZ
    dof rx
    limits (-10.0 170.0)
  end
  begin
     id 4 
     name lfoot
     direction 0.0596604 -0.163915 0.984669   
     length 2.39542   
     axis -90 7.62852e-016 20   XYZ
    dof rx rz
    limits (-45.0 90.0)
           (-70.0 20.0)
  end
  begin
     id 5 
     name ltoes
     direction 1.53514e-011 -4.21954e-011 1   
     length 1.2047   
     axis -90 7.62852e-016 20   XYZ
    dof rx
    limits (-90.0 20.0)
  end
  begin
     id 6 
     name rhipjoint
     direction -0.580585 -0.69168 0.429534   
     length 2.52018  
     axis 0 0 0  XYZ 
  end
  begin
     id 7 
     name rfemur
     direction -0.34202 -0.939693 0   
     length 7.0101   
     axis 0 0 -20   XYZ
    dof rx ry rz
    limits (-160.0 20.0)
           (-70.0 70.0)
           (-70.0 60.0)
  end
  begin
     id 8 
     name rtibia
     direction -0.34202 -0.939693 0   
     length 7.70628   
     axis 0 0 -20   XYZ
    dof rx
    limits (-10.0 170.0)
 end
 begin
     id 9 
     name rfoot
     direction -0.0696237 -0.19129 0.979061   
     length 2.52466  
     axis -90 -7.62852e-016 -20   XYZ
    dof rx rz
    limits (-45.0 90.0)
           (-20.0 70.0)
  end
  begin
     id 10 
     name rtoes
     direction -1.53519e-011 -4.21793e-011 1   
     length 1.266   
     axis -90 -7.62852e-016 -20   XYZ
    dof rx
    limits (-90.0 20.0)
  end
  begin
     id 11 
     name lowerback
     direction 0.00381965 0.995707 -0.0924856   
     length 2.20825   
     axis 0 0 0   XYZ
    dof rx ry rz
    limits (-20.0 45.0)
           (-30.0 30.0)
           (-30.0 30.0)
  end
  begin
     id 12 
     name upperback
     direction -0.0139043 0.999634 -0.0231929   
     length 2.21517   
     axis 0 0 0   XYZ
    dof rx ry rz
    limits (-20.0 45.0)
           (-30.0 30.0)
           (-30.0 30.0)
  end
  begin
     id 13 
     name thorax
     direction -0.0143933 0.999691 0.0202892   
     length 2.22911   
     axis 0 0 0   XYZ
    dof rx ry rz
    limits (-20.0 45.0)
           (-30.0 30.0)
           (-30.0 30.0)
  end
  begin
     id 14 
     name lowerneck
     direction -0.0251153 0.981819 0.188153   
     length 1.61782   
     axis 0 0 0   XYZ
    dof rx ry rz
    limits (-20.0 45.0)
           (-30.0 30.0)
           (-30.0 30.0)
  end
  begin
     id 15 
     name upperneck
     direction 0.0563891 0.969357 -0.239095   
     length 1.64526   
     axis 0 0 0   XYZ
    dof rx ry rz
    limits (-20.0 45.0)
           (-30.0 30.0)
           (-30.0 30.0)
  end
  begin
     id 16
     name head
     direction 0.0208328 0.99459 -0.101773  
     length 1.67436  
     axis 0 0 0   XYZ
    dof rx ry rz
    limits (-20.0 45.0)
           (-30.0 30.0)
           (-30.0 30.0)
  end
  begin
     id 17 
     name lclavicle
     direction 0.917689 0.397224 0.00772059  
     length 3.31102  
     axis 0 0 0   XYZ
    dof ry rz
    limits (-20.0 10.0)
           (0.0 20.0)
  end
  begin
     id 18 
     name lhumerus
     direction 1 -4.4896e-011 2.32308e-027   
     length 5.25537   
     axis 180 -30 -90   XYZ
    dof rx ry rz
    limits (-60.0 90.0)
           (-90.0 90.0)
           (-90.0 90.0)
  end
  begin
     id 19
     name lradius
     direction 1 -4.49005e-011 -2.04271e-027   
     length 3.38855   
     axis 180 -30 -90   XYZ
    dof rx
    limits (-10.0 170.0)
  end
  begin
     id 20
     name lwrist
     direction 1 -4.48892e-011 2.56952e-028   
     length 1.69428   
     axis -5.12785e-016 90 90   XYZ
    dof ry
    limits (-180.0 0.0)
 end
  begin
     id 21 
     name lhand
     direction 1 -4.48966e-011 5.13905e-028   
     length 0.614516   
     axis -3.27915e-016 90 90   XYZ
    dof rx rz
    limits (-90.0 90.0)
           (-45.0 45.0)
  end
  begin
     id 22 
     name lfingers
     direction 1 -4.48979e-011 1.02781e-027   
     length 0.495439   
     axis -6.5583e-016 90 90   XYZ
    dof rx
    limits (0.0 90.0)
  end
  begin
     id 23
     name lthumb
     direction 0.707107 -6.35001e-011 0.707107   
     length 0.711354   
     axis -90 45 2.85299e-015   XYZ
    dof rx rz
    limits (-45.0 45.0)
           (-45.0 45.0)
  end
  begin
     id 24 
     name rclavicle
     direction -0.938556 0.342765 -0.0403177   
     length 3.27019  
     axis 0 0 0   XYZ 
    dof ry rz
    limits (-10.0 20.0)
           (-20.0 0.0)
  end
  begin
     id 25 
     name rhumerus
     direction -1 -4.48966e-011 2.52291e-027  
     length 5.38183   
     axis 180 30 90   XYZ
    dof rx ry rz
    limits (-90.0 60.0)
           (-90.0 90.0)
           (-90.0 90.0)
  end
  begin
     id 26 
     name rradius
     direction -1 -4.4896e-011 1.5797e-027   
     length 3.16988   
     axis 180 30 90   XYZ
    dof rx
    limits (-10.0 170.0)
  end
  begin
     id 27 
     name rwrist
     direction -1 -4.48947e-011 2.56952e-028   
     length 1.58494   
     axis -5.12785e-016 -90 -90   XYZ
    dof ry
    limits (-180.0 0.0)
  end
  begin
     id 28
     name rhand
     direction -1 -4.49098e-011 5.13905e-028   
     length 0.637679   
     axis -3.27915e-016 -90 -90   XYZ
    dof rx rz
    limits (-90.0 90.0)
           (-45.0 45.0)
  end
  begin
     id 29
     name rfingers
     direction -1 -4.49026e-011 1.02781e-027   
     length 0.514113   
     axis -6.5583e-016 -90 -90   XYZ
    dof rx
    limits (0.0 90.0)
  end
  begin
     id 30
     name rthumb
     direction -0.707107 -6.3491e-011 0.707107   
     length 0.738167   
     axis -90 -45 -2.85299e-015   XYZ
    dof rx rz
    limits (-45.0 45.0)
           (-45.0 45.0)
  end
:hierarchy
  begin
    root lhipjoint rhipjoint lowerback
    lhipjoint lfemur
    lfemur ltibia
    ltibia lfoot
    lfoot ltoes
    rhipjoint rfemur
    rfemur rtibia
    rtibia rfoot
    rfoot rtoes
    lowerback upperback
    upperback thorax
    thorax lowerneck lclavicle rclavicle
    lowerneck upperneck
    upperneck head
    lclavicle lhumerus
    lhumerus lradius
    lradius lwrist
    lwrist lhand lthumb
    lhand lfingers
    rclavicle rhumerus
    rhumerus rradius
    rradius rwrist
    rwrist rhand rthumb
    rhand rfingers
  end

#!OML:ASF H:\Swim\Project 1\Capture day 1\Session 1\swimmer.ASF
:FULLY-SPECIFIED
:DEGREES
1
root 2.77678 17.3688 -44.6838 3.95077 4.59222 12.6631
lowerback -0.27897 -1.63992 -11.0509
upperback 2.66709 -1.82265 -5.66107
thorax 3.12214 -1.09417 0.213598
lowerneck -16.8786 -3.87332 -9.49189
upperneck 21.2013 -6.61794 15.3818
head 10.4347 -2.12085 6.22345
rclavicle 1.71949e-014 3.4191e-014
rhumerus -10.1311 -9.39084 -4.17788
rradius 43.1458
rwrist -177.256
rhand -39.8594 -12.5986
rfingers 7.12502
rthumb -12.8322 -42.1842
lclavicle 1.71949e-014 3.4191e-014
lhumerus -10.7055 -4.77515 5.55827
lradius 40.643
lwrist -11.6031
lhand 6.86362 -9.79846
lfingers 7.12502
lthumb 32.1459 17.3781
rfemur -14.0573 20.694 6.09382
rtibia 38.431
rfoot -31.9648 -24.6416
rtoes -5.22765
lfemur -8.24992 -18.9868 -29.772
ltibia 23.0866
lfoot -2.76059 23.9311
ltoes -33.3088
2
root 2.77072 17.3693 -44.683 3.98983 4.62256 12.6746
lowerback -0.342382 -1.81273 -11.0676
upperback 2.79658 -2.02642 -5.6998
thorax 3.31241 -1.20558 0.166676
lowerneck -17.6397 -3.86516 -9.34504
upperneck 21.4811 -6.64801 15.435
head 10.6883 -2.08157 6.22961
rclavicle 7.65321e-015 4.21423e-014
rhumerus -9.47829 -9.64153 -4.68427
rradius 43.148
rwrist -177.063
rhand -39.8414 -12.6133
rfingers 7.12502
rthumb -12.8148 -42.2
lclavicle 7.65321e-015 4.21423e-014
lhumerus -11.0398 -4.52275 5.23358
lradius 40.7512
lwrist -11.389
lhand 7.24647 -9.80645
lfingers 7.12502
lthumb 32.5103 17.2958
rfemur -14.0679 20.6648 6.09488
rtibia 38.4172
rfoot -32.0234 -24.669
rtoes -5.30169
lfemur -8.29267 -19.0245 -29.7455
ltibia 23.0959
lfoot -2.92943 23.9835
ltoes -33.8326
3
root 2.76565 17.371 -44.6809 4.00921 4.59196 12.6914
lowerback -0.27874 -1.80355 -11.0571
upperback 2.69725 -2.03716 -5.65424
thorax 3.17302 -1.20357 0.214193
lowerneck -17.5832 -3.87995 -9.47009
upperneck 21.5436 -6.65397 15.4713
head 10.7064 -2.09208 6.26816
rclavicle -3.21037e-014 -4.05521e-014
rhumerus -9.28161 -9.36951 -4.67606
rradius 43.2656
rwrist -177.008
rhand -39.8483 -12.6574
rfingers 7.12502
rthumb -12.8215 -42.2436
lclavicle -3.21037e-014 -4.05521e-014
lhumerus -11.1719 -4.7404 5.26333
lradius 40.8434
lwrist -11.3679
lhand 7.44825 -9.72139
lfingers 7.12502
lthumb 32.7023 17.3412
rfemur -14.1032 20.6941 6.09178
rtibia 38.4333
rfoot -32.0718 -24.6891
rtoes -5.10064
lfemur -8.275 -19.096 -29.7507
ltibia 23.0744
lfoot -3.06718 24.1361
ltoes -33.3271
4
root 2.76245 17.3691 -44.6793 4.04018 4.62103 12.7186
lowerback -0.479399 -1.69828 -11.038
upperback 2.71835 -1.86388 -5.61849
thorax 3.29471 -1.12283 0.240428
lowerneck -17.1764 -3.9788 -9.64624
upperneck 21.2966 -6.76759 15.5758
head 10.5647 -2.16818 6.30913
rclavicle -1.09332e-015 1.51076e-014
rhumerus -9.51677 -9.16615 -4.42638
rradius 43.4645
rwrist -177.034
rhand -39.868 -12.6186
rfingers 7.12502
rthumb -12.8405 -42.2037
lclavicle -1.09332e-015 1.51076e-014
lhumerus -10.8805 -4.78399 5.47946
lradius 40.7925
lwrist -11.6455
lhand 7.29385 -9.81557
lfingers 7.12502
lthumb 32.5553 17.2774
rfemur -14.1183 20.6633 6.07054
rtibia 38.4498
rfoot -32.115 -24.6876
rtoes -5.12515
lfemur -8.29831 -19.1723 -29.7596
ltibia 23.0584
lfoot -2.86128 24.1654
ltoes -33.5266
5
root 2.75906 17.3686 -44.6773 4.06178 4.62306 12.7369
lowerback -0.558543 -1.67701 -11.021
upperback 2.71669 -1.82425 -5.59324
thorax 3.33457 -1.10463 0.256618
lowerneck -17.1049 -4.01656 -9.72471
upperneck 21.2555 -6.81168 15.625
head 10.5475 -2.19326 6.33335
rclavicle 7.55382e-015 -3.49861e-014
rhumerus -9.4407 -9.02911 -4.4067
rradius 43.607
rwrist -176.999
rhand -39.8933 -12.6308
rfingers 7.12502
rthumb -12.8649 -42.2143
lclavicle 7.55382e-015 -3.49861e-014
lhumerus -10.8607 -4.79985 5.53749
lradius 40.8368
lwrist -11.6774
lhand 7.46146 -9.77091
lfingers 7.12502
lthumb 32.7148 17.289
rfemur -14.1386 20.6606 6.06053
rtibia 38.4705
rfoot -32.164 -24.6904
rtoes -5.0882
lfemur -8.29854 -19.2433 -29.7659
ltibia 23.037
lfoot -2.83565 24.2447
ltoes -33.4981
6
root 2.75645 17.3678 -44.6752 4.07746 4.62196 12.7499
lowerback -0.632872 -1.64881 -10.9965
upperback 2.70968 -1.77714 -5.56351
thorax 3.36516 -1.08213 0.274153
lowerneck -17.0061 -4.04917 -9.80286
upperneck 21.2074 -6.8464 15.6622
head 10.5204 -2.21653 6.35385
rclavicle 2.45499e-014 -1.59028e-015
rhumerus -9.38711 -8.89403 -4.37376
rradius 43.756
rwrist -176.979
rhand -39.9338 -12.6453
rfingers 7.12502
rthumb -12.9039 -42.2264
lclavicle 2.45499e-014 -1.59028e-015
lhumerus -10.8393 -4.81044 5.61445
lradius 40.8865
lwrist -11.6946
lhand 7.6493 -9.70186
lfingers 7.12502
lthumb 32.8935 17.3208
rfemur -14.156 20.6619 6.0555
rtibia 38.495
rfoot -32.2111 -24.6893
rtoes -5.05136
lfemur -8.2917 -19.3172 -29.7723
ltibia 23.0145
lfoot -2.79867 24.3254
ltoes -33.4419
